<svg width="111" height="117" viewBox="0 0 111 117" fill="none" xmlns="http://www.w3.org/2000/svg">
<g clip-path="url(#clip0)">
<path d="M108.355 82.1827C106.216 80.1402 103.705 80.4398 101.254 81.3598C97.4494 82.7819 93.7256 84.3433 89.9721 85.8625C87.6642 86.7952 87.3472 86.6011 87.0133 83.7525L102.543 77.0005C100.146 73.2573 98.1892 69.6408 95.7038 66.4504C90.6653 59.9643 84.6632 54.6344 76.48 52.3176C75.7994 52.1235 75.2753 51.0263 74.8949 50.2455C74.5736 49.5746 74.5821 48.7517 74.4046 48.0089C74.0368 46.4982 73.6437 44.9958 73.1111 42.9027C74.4172 43.6792 75.2246 44.0674 75.9389 44.5907C79.5782 47.3211 83.1246 50.1991 86.8569 52.7776C88.1825 53.6223 89.7226 54.0704 91.2951 54.0689C93.4889 54.0689 94.8584 52.3809 95.5009 50.4776C96.1434 48.5744 95.3402 46.629 93.7678 45.3883C91.0753 43.2783 88.1799 41.3877 85.4325 39.3284C82.1778 36.885 78.5554 34.9944 76.1334 31.4242C71.3232 24.3388 66.196 17.4602 61.0899 10.5773C60.1227 9.22201 58.8482 8.11434 57.3703 7.34479C55.5527 6.47968 53.4477 6.21804 51.1399 5.61036C51.8088 5.0887 52.5059 4.60407 53.228 4.15867C58.7609 1.12869 64.2558 1.83765 69.5098 4.72415C77.8537 9.30709 83.2091 16.5993 86.7005 25.2039C88.6322 29.9599 89.7777 35.0366 91.3501 40.2272C92.8506 40.5986 92.8633 39.3452 92.5125 38.1172C91.1514 33.2853 90.1201 28.3056 88.2095 23.6974C84.2701 14.1939 78.1622 6.39528 68.4954 1.99802C63.123 -0.436935 57.7127 -0.626839 52.3276 2.31874C48.4744 4.40631 45.511 7.81922 43.988 11.9235C41.4772 18.5532 45.1758 24.9043 52.2811 25.4993C56.7193 25.8707 60.3122 23.3471 61.9311 19.2241C62.1931 18.5574 62.5144 17.9117 62.9497 16.9369L71.9995 29.2973C71.6827 29.311 71.3653 29.2912 71.0527 29.2383C70.8632 29.1449 70.6834 29.0332 70.5158 28.9049C66.0861 25.7483 61.4281 24.592 56.0938 26.6472C49.9479 29.0146 46.9806 33.9394 48.3248 40.3369C49.5125 46.0255 50.8102 51.6888 52.019 57.3689C52.1585 58.0315 52.3022 58.8713 52.019 59.4156C49.9775 63.4205 49.4829 67.7291 49.7112 72.0757C49.9817 77.03 50.3114 82.0223 51.2413 86.8796C51.9176 90.4286 53.5999 93.7835 54.8553 97.2819L59.712 95.4082C59.788 96.2818 59.8768 96.8262 59.881 97.3748C59.881 101.665 59.881 105.954 59.881 110.242C59.881 112.613 60.7264 114.495 62.9878 115.512C67.1047 117.373 71.0611 114.884 71.1499 110.263C71.2555 104.709 71.1794 99.1556 71.1752 93.6021C71.1752 90.1416 71.4161 89.8505 74.8441 88.8672C75.9135 88.5549 76.5349 88.614 76.7758 89.918C77.0168 91.222 77.6212 92.4289 78.0016 93.716C79.8488 100.147 83.4966 100.548 87.436 98.9742C93.9834 96.3535 100.611 93.9397 107.133 91.2642C108.16 90.8422 109.137 89.6563 109.581 88.5887C110.523 86.2972 110.24 84.0015 108.355 82.1827ZM53.0462 8.14237C55.8867 8.20567 57.9832 9.59405 58.9385 12.164C54.9694 13.7423 49.2167 13.7466 46.4142 12.2147C47.4879 9.65736 50.0536 8.07906 53.0462 8.14237ZM58.1184 21.427C55.6542 23.6383 51.7781 24.1489 49.0983 22.52C46.186 20.7518 44.4487 17.1184 45.6111 14.4555C50.4467 15.7848 55.2146 15.8819 59.881 14.1264C60.3676 15.3789 60.4579 16.7503 60.1397 18.0557C59.8215 19.3611 59.1101 20.5377 58.1015 21.427H58.1184ZM50.2269 39.8516C48.7686 33.3992 53.3209 29.1792 58.8243 27.9765C63.2034 27.0185 66.737 28.6517 70.1312 31.0529C76.1418 35.2982 82.1566 39.5337 88.1757 43.7594C89.4438 44.6329 90.8513 45.2617 92.0856 46.1606C92.482 46.4503 92.8143 46.8185 93.0617 47.2423C93.3091 47.666 93.4663 48.1362 93.5234 48.6234C93.5805 49.1106 93.5364 49.6042 93.3937 50.0736C93.2511 50.543 93.0129 50.9779 92.6942 51.3512C91.3459 53.0392 89.7861 52.3851 88.4378 51.4229C83.6868 48.0174 78.9949 44.5274 74.2735 41.0712C73.8804 40.7842 73.4873 40.3496 73.052 40.2947C72.3714 40.2061 71.5176 40.1724 71.0062 40.5142C70.6638 40.7463 70.5835 41.7169 70.7399 42.2781C71.5049 45.3208 72.3714 48.3381 73.276 51.6002L59.5556 55.8202C58.2156 56.2422 56.9095 56.7824 55.5443 57.0271C55.0455 57.1157 54.0099 56.6051 53.9127 56.1831C52.5897 50.7731 51.44 45.3039 50.21 39.8516H50.2269ZM53.5365 86.6686C52.9912 83.7146 52.4882 80.7605 52.074 77.7812C51.3686 73.1899 51.5248 68.5076 52.5347 63.9733C53.1772 61.1881 54.3565 59.3102 57.4379 58.5168C62.4425 57.2508 67.2527 55.1999 72.27 53.9887C75.4866 53.2122 78.809 54.5078 81.3789 56.335C85.2169 59.0654 88.6787 62.3401 92.1363 65.56C93.6749 66.9906 94.8077 68.8516 96.3082 70.7549C90.8133 73.1012 85.741 75.2661 80.6688 77.4014C74.1876 80.1416 67.6866 82.8649 61.166 85.5714C59.3654 86.3225 57.4548 86.8374 55.7345 87.732C54.2762 88.479 53.7394 87.8797 53.5196 86.6686H53.5365ZM69.0449 110.917C69.0195 112.769 67.2823 114.132 65.4774 114.103C63.7571 114.069 62.0325 112.643 61.9902 110.79C61.8677 105.663 61.9057 100.531 61.9522 95.404C61.9739 95.1349 62.0572 94.8743 62.1958 94.6423C62.3343 94.4104 62.5242 94.2133 62.7511 94.0663C64.6912 93.1547 66.699 92.3783 69.0914 91.3866C69.0702 98.1513 69.1252 104.536 69.0449 110.917ZM65.1984 90.7789C62.6919 91.8465 60.1558 92.8425 57.6577 93.9312C56.1487 94.5853 55.6373 93.7709 55.3033 92.5302C55.0032 91.4076 54.7158 90.6143 56.3262 89.9433C67.874 85.1536 79.35 80.2035 90.8513 75.3083C92.0687 74.7906 93.2958 74.2898 94.5329 73.8059C97.6439 72.5948 97.6439 72.599 99.3093 76.1354C96.5449 77.3423 93.8735 78.5197 91.1895 79.6675C82.5216 83.3812 73.8537 87.0849 65.1858 90.7789H65.1984ZM105.514 89.7618C99.0078 92.2939 92.497 94.8034 85.982 97.2904C83.319 98.3074 81.4507 97.3621 80.5885 94.6908C79.946 92.6948 79.2147 90.724 78.6441 88.7111C78.5131 88.2511 78.7075 87.3269 79.0203 87.175C80.8674 86.2719 82.7949 85.5376 84.8027 84.6978L86.4173 89.3947L95.7925 85.7486C98.1976 84.8118 100.586 83.8243 103.012 82.9549C105.155 82.1869 107.121 83.0858 107.873 85.065C108.625 87.0441 107.662 88.9221 105.502 89.7618H105.514Z" fill="white"/>
<path d="M45.2645 34.2683C44.9855 30.4702 43.2272 28.9679 39.3892 28.9468C35.3018 28.9257 31.1975 29.1958 27.1313 28.8751C22.5662 28.5122 19.7131 29.8457 17.4095 34.1881C12.2611 43.9701 6.4027 53.3808 0.869734 62.9771C0.165291 64.208 -0.0586634 65.6554 0.240941 67.0412C0.540545 68.427 1.34255 69.6533 2.49284 70.4845C3.58355 71.329 4.95264 71.7327 6.32787 71.6154C7.70311 71.4981 8.98376 70.8684 9.91522 69.8515C11.2932 68.3323 12.2315 66.4164 13.3263 64.6524C14.8437 62.2048 16.3232 59.7361 17.8195 57.2758L18.3901 57.5037V61.0696C18.3901 77.2408 18.3901 93.4175 18.3901 109.6C18.3901 113.588 20.7783 116.137 24.4599 116.132C27.9428 116.132 30.4282 113.495 30.5001 109.663C30.5466 106.92 30.5001 104.177 30.5001 101.434C30.5001 94.2629 30.5001 87.0889 30.5001 79.912C30.5001 78.7009 30.5001 77.5995 32.2331 77.7514C33.8181 77.8864 33.4208 79.068 33.4251 79.9627C33.4251 90.0907 33.518 100.219 33.4251 110.347C33.3743 114.504 37.5251 117.052 41.1475 115.833C43.8612 114.913 45.3744 112.849 45.3744 109.558C45.411 97.6826 45.4237 85.8088 45.4125 73.9365C45.4125 63.6678 45.4125 53.399 45.4125 43.1303C45.3998 40.1679 45.4759 37.2054 45.2645 34.2683ZM43.4131 109.507C43.4205 110.27 43.2574 111.026 42.9355 111.718C41.9929 113.584 40.0147 114.495 38.2056 113.955C36.1472 113.343 35.4624 111.777 35.4624 109.777C35.4624 99.3087 35.4624 88.8402 35.4624 78.3717V75.8693H28.505V78.2283C28.505 88.4871 28.5515 98.746 28.4458 109.005C28.3706 110.369 27.9137 111.685 27.127 112.803C26.0999 114.331 24.3796 114.457 22.7564 113.786C21.2517 113.166 20.7276 111.904 20.7318 110.25C20.7656 98.9401 20.7318 87.6262 20.7318 76.3166C20.7318 73.5229 20.7318 70.7335 20.7318 67.8428C21.3658 67.7752 21.7716 67.6993 22.1731 67.6993C28.5768 67.6993 34.9806 67.6993 41.3885 67.6697C42.7157 67.6697 43.4681 67.8723 43.4596 69.4801C43.4131 82.8196 43.4385 96.1676 43.4131 109.507ZM41.0799 65.7285C34.4099 65.6273 27.7315 65.6906 20.5923 65.6906C20.5923 61.5718 20.643 57.7865 20.55 54.0053C20.55 53.2204 19.9921 52.4481 19.7047 51.6716C19.1044 52.1527 18.3182 52.5156 17.9378 53.1318C15.072 57.7527 12.2781 62.4158 9.48409 67.0832C8.08923 69.4084 6.18291 70.1975 4.27659 69.1932C2.05748 68.0158 1.57562 66.0915 3.06348 63.4919C8.33016 54.2923 13.6278 45.1109 18.9565 35.9478C19.0283 35.8255 19.189 35.7453 19.2228 35.6229C20.4697 30.8838 24.0541 30.618 28.0696 30.8205C31.8738 31.0146 35.678 30.8754 39.4822 30.9176C41.8365 30.9429 42.944 31.9177 43.2863 34.2514C43.4024 35.0903 43.4547 35.9367 43.4427 36.7834C43.4427 45.6455 43.4005 54.5075 43.4892 63.3696C43.4892 65.1968 42.9482 65.7707 41.0799 65.7412V65.7285Z" fill="white"/>
<path d="M31.8781 27.2165C38.1296 27.2545 42.7327 22.6294 42.8172 16.2445C42.8891 10.6276 37.7703 5.39479 31.9922 5.64799C25.2926 5.93495 21.2771 10.1465 21.1122 16.4133C20.9558 22.3551 25.6181 27.2165 31.8781 27.2165ZM35.6231 8.64843C34.8326 12.3114 28.2218 16.2445 23.4455 15.7929C23.065 10.9441 29.38 5.46652 35.6231 8.61888V8.64843ZM37.6689 10.2436C39.003 11.2429 39.982 12.642 40.4626 14.2365C40.9432 15.831 40.9004 17.5372 40.3403 19.1056C38.6833 23.4227 35.1032 25.6804 30.7199 25.1783C27.2877 24.7858 24.1387 21.8022 23.6188 18.1899C29.5744 17.616 34.3212 15.0671 37.6689 10.2141V10.2436Z" fill="white"/>
<path d="M37.1912 31.9092C36.9102 31.7608 36.5914 31.6993 36.2752 31.7323C35.9591 31.7654 35.66 31.8916 35.4159 32.0949L32.0936 34.8675L28.7755 32.0949C28.5302 31.8923 28.2305 31.7665 27.9139 31.7335C27.5972 31.7004 27.2779 31.7616 26.996 31.9092C26.7115 32.0726 26.476 32.3091 26.314 32.5941C26.152 32.879 26.0693 33.2021 26.0745 33.5297V39.3618C26.0684 39.6896 26.1507 40.013 26.3128 40.2981C26.4749 40.5832 26.7109 40.8195 26.996 40.9823C27.2772 41.1316 27.5965 41.1941 27.9134 41.1618C28.2302 41.1294 28.5303 41.0038 28.7755 40.8008L32.0936 38.0283L35.4159 40.8008C35.703 41.0406 36.0645 41.1733 36.4388 41.1764C36.7019 41.1756 36.9606 41.1088 37.1912 40.9823C37.4774 40.8204 37.7144 40.5844 37.8774 40.2992C38.0403 40.014 38.1231 39.6901 38.1169 39.3618V33.5466C38.1252 33.2156 38.0435 32.8886 37.8805 32.6003C37.7175 32.312 37.4793 32.0731 37.1912 31.9092ZM36.1852 34.0741V38.8216L33.3405 36.4458L36.1852 34.0741ZM30.8509 36.4458L28.002 38.8216V34.0741L30.8509 36.4458Z" fill="white"/>
</g>
<defs>
<clipPath id="clip0">
<rect width="110" height="116" fill="white" transform="translate(0.104736 0.124023)"/>
</clipPath>
</defs>
</svg>
