<svg width="68" height="116" viewBox="0 0 68 116" fill="none" xmlns="http://www.w3.org/2000/svg">
<g clip-path="url(#clip0)">
<path d="M59.7833 69.3877C59.0954 62.5734 57.8158 57.0859 53.8151 52.4683C53.3642 51.8152 53.1607 51.0222 53.2411 50.232C53.7231 44.8324 54.2971 39.4108 54.8931 33.8706C55.4408 28.7741 53.8984 25.914 49.4113 23.8534C53.5741 22.8034 56.1156 21.0372 57.6143 18.735C59.1129 16.4328 59.0691 13.0454 58.6791 11.2309C58.3716 9.88755 57.7995 8.61937 56.9964 7.50078C56.843 7.28989 56.4092 6.74949 56.1682 6.49027C55.6718 5.94432 55.0772 5.49715 54.4154 5.17222C52.3423 4.07765 49.9599 3.72136 47.6585 4.16171C46.2585 4.4589 44.9403 5.05968 43.7965 5.92189C42.6527 6.7841 41.711 7.88684 41.0373 9.15274C40.3457 10.3378 39.9266 11.6628 39.8106 13.0309C39.6947 14.3991 39.8847 15.7759 40.3669 17.061C41.55 20.0311 43.684 22.0301 47.0757 23.335L47.0099 23.3921C46.9326 23.4707 46.8439 23.5373 46.747 23.5898C42.8383 24.1082 39.9287 26.4807 37.1067 28.7741L36.02 29.6528C33.0666 32.0077 32.326 32.223 29.6092 29.6221L28.2946 28.3787C26.0598 26.2391 23.7549 24.0204 21.3931 21.9422C20.0785 20.778 18.4528 19.6093 16.0602 20.4968C15.2313 20.7804 14.4913 21.2776 13.9145 21.9384C13.3377 22.5993 12.9443 23.4006 12.7738 24.262C12.61 25.238 12.702 26.24 13.0408 27.1696C13.3796 28.0993 13.9535 28.9247 14.7062 29.565L16.1304 30.883C18.5448 33.0798 21.0425 35.3688 23.3956 37.7105C23.6559 38.04 23.8439 38.4208 23.9473 38.8281C24.0508 39.2355 24.0673 39.6601 23.996 40.0742C22.4535 46.3569 20.7577 52.6265 19.4563 57.389C18.805 59.8356 18.0314 62.2478 17.1382 64.6163C16.9056 64.9584 16.5713 65.2182 16.1829 65.3588C15.9948 65.4633 15.7788 65.5063 15.5651 65.4819C13.2032 64.4977 10.837 63.4081 8.55396 62.3581C7.2087 61.743 5.86783 61.1279 4.51819 60.5304C3.41394 60.0383 3.10282 59.4188 3.44461 58.3951C3.88281 57.0332 4.321 55.68 4.62774 54.6519C5.17694 52.8505 5.7276 51.0507 6.27973 49.2523C7.83094 44.1865 9.43911 38.9495 10.9158 33.7695C11.0166 33.4225 11.1437 33.0754 11.2795 32.7107C11.8711 31.1291 12.5415 29.3409 10.6836 27.4385L10.4294 27.1749L9.24193 31.0148C8.45756 33.5543 7.69071 36.019 6.93702 38.4838C6.47253 40.0039 6.00221 41.5212 5.52604 43.0354C4.30347 46.9369 3.04147 50.9745 1.98542 54.9946C1.83205 55.5789 1.64363 56.1676 1.46397 56.752C0.81544 58.8125 0.149382 60.9478 0.736563 63.4081C1.61295 67.0503 3.23427 70.3982 4.80301 73.6362C5.71884 75.5342 6.66972 77.4937 7.45409 79.484C7.70094 80.0839 7.97884 80.6705 8.28666 81.2414C9.21125 83.0251 10.0876 84.7122 9.08418 86.887C6.70916 92.0406 4.82931 96.3594 3.16417 100.472C2.56384 101.948 1.76632 104.162 1.71374 106.368C1.66115 108.674 2.09935 109.544 3.02832 110.515C3.10283 110.587 3.18348 110.651 3.26933 110.709L3.40956 110.814C4.42825 111.665 5.64978 112.235 6.95455 112.47H7.05095C10.8326 113.349 13.9876 111.684 15.4906 108.077C16.0602 106.697 16.6869 105.309 17.2916 103.969C18.2468 101.864 19.2328 99.6853 20.0259 97.471C20.5827 96.0106 21.216 94.5807 21.9233 93.1873C23.4657 90.002 25.0651 86.7113 24.8198 82.7967C26.3797 82.7967 27.1772 82.7967 27.5147 83.113C27.8521 83.4293 27.8433 84.2026 27.8433 85.5953V87.7921C27.8433 89.8893 27.8506 91.982 27.8652 94.0704C27.8652 99.0702 27.909 104.237 27.8214 109.316C27.7907 111.029 28.9125 112.831 30.7485 114.034C31.7846 114.741 33.0014 115.135 34.2541 115.168C34.8325 115.176 35.4054 115.056 35.9324 114.817C38.509 113.613 40.2223 112.11 40.2355 108.666C40.2355 105.86 40.2355 103.055 40.2355 100.252C40.2355 95.5202 40.2355 90.6303 40.2793 85.8194C40.3492 85.3951 40.529 84.9967 40.8007 84.6639C40.8708 84.5541 40.9409 84.4486 41.0067 84.3388L41.2433 84.6112C41.5713 84.9403 41.8423 85.3219 42.0452 85.7403C42.2079 86.1972 42.3297 86.6677 42.4089 87.1462C42.5056 87.8261 42.7175 88.4843 43.0355 89.0926C46.4315 94.7162 50.9449 102.128 55.6993 109.571C57.106 111.767 60.296 112.8 62.9602 111.912C65.0373 111.218 66.5315 109.852 67.1669 108.059C67.868 106.06 67.4342 103.666 65.9356 101.333C63.6482 97.7082 61.3521 94.0528 59.1304 90.538C58.1883 89.0398 57.2506 87.546 56.3128 86.0698C58.2935 83.9434 58.8544 81.382 59.2268 78.8952C59.4372 77.4981 59.665 76.0131 59.7789 74.6863L59.7833 69.3877ZM51.8345 6.62208C54.6083 7.57986 56.2734 9.49104 56.7861 12.3117C52.3515 12.4567 48.8635 10.9145 45.8312 7.47881C47.4438 6.05092 49.4113 5.77413 51.8345 6.62208ZM43.2853 18.1111C41.3397 15.1455 41.5106 12.1096 43.798 9.07805C46.9135 12.7422 51.1115 14.7632 56.6196 15.229C56.4417 16.5985 55.8612 17.8839 54.9521 18.9214C54.0429 19.959 52.8463 20.7016 51.5146 21.0547C48.3508 21.8807 44.9811 20.6813 43.2853 18.0935V18.1111ZM22.046 86.7157C19.855 92.0801 17.5063 97.4754 15.2189 102.695C14.5441 104.233 13.8707 105.773 13.1988 107.317C12.0639 109.922 9.75024 110.832 7.01152 109.742C6.43263 109.534 5.90145 109.212 5.44971 108.793C4.99798 108.375 4.63496 107.87 4.38235 107.308C4.1621 106.752 4.05595 106.158 4.07026 105.56C4.08456 104.962 4.21903 104.373 4.4656 103.828C4.93885 102.69 5.39896 101.544 5.85906 100.397C7.41027 96.5527 9.00968 92.5766 10.9158 88.8421C12.8702 85.0066 11.4285 82.0454 9.9036 78.9128L9.49608 78.0737C7.76959 74.449 5.76704 70.2269 3.90471 66.0179C3.62175 65.2854 3.43612 64.5187 3.35259 63.7376C3.3 63.3993 3.23866 63.0303 3.16855 62.6349L5.73637 63.8035C8.99216 65.2842 12.0639 66.6813 15.0874 68.1048C15.4073 68.2542 15.6659 68.799 15.8543 69.1988C16.348 70.2386 16.8446 71.2784 17.3441 72.3182C18.9217 75.6089 20.5561 79.0095 21.9715 82.4232C22.5097 83.7986 22.5361 85.3223 22.046 86.7157ZM37.7728 107.958C37.7728 110.946 36.5678 112.405 34.1139 112.426C32.9088 112.426 32.0544 112.145 31.4409 111.548C30.7047 110.818 30.341 109.615 30.3366 107.875C30.3366 105.329 30.3366 102.787 30.3366 100.248V96.9218C30.3366 95.8 30.3366 94.6796 30.3366 93.5608C30.3366 90.7841 30.3366 87.9151 30.3147 85.0901C30.3147 84.2597 30.4243 83.772 30.7047 83.5655C30.8856 83.4404 31.1033 83.38 31.3226 83.3942C31.5773 83.3997 31.8305 83.4366 32.0763 83.504C32.7782 83.6471 33.4944 83.7076 34.2103 83.6842H34.9683C36.3662 83.7369 37.1374 83.7632 37.4573 84.0796C37.7772 84.3959 37.7728 85.1384 37.7728 86.4872V88.4731C37.7816 94.9696 37.7816 101.465 37.7728 107.958ZM38.7719 81.3732C35.2181 81.0173 31.5417 80.6482 27.9222 80.3671C26.4937 80.2572 26.0379 79.7739 25.981 78.2889C25.7093 71.4526 27.335 65.0161 30.9545 58.6236L31.0465 58.4567L29.0878 56.9321L28.9563 57.121C26.7208 60.3778 25.1922 64.0689 24.4692 67.9554C23.9784 70.5256 23.7243 73.1485 23.4526 75.9296C23.3518 76.9577 23.2466 78.0121 23.1283 79.1017L22.195 77.0939C20.7971 74.1371 19.4825 71.3472 18.2205 68.5617C18.1132 68.1364 18.1534 67.687 18.3345 67.2876C18.7727 66.053 19.2109 64.8009 19.671 63.5927C20.429 61.5321 21.2134 59.4013 21.8838 57.2748C22.7602 54.5289 23.5271 51.7038 24.2764 48.9755C24.5963 47.8068 24.9162 46.6425 25.2448 45.4607L25.6085 45.3684L26.6207 47.2137C27.427 48.6855 28.2596 50.2056 29.0483 51.717C29.5435 52.6572 30.0211 53.6238 30.4812 54.564C31.213 56.0534 31.9755 57.5999 32.8124 59.0673C34.3636 61.7781 37.3478 62.714 40.2617 61.3915C41.5563 60.8003 42.5646 59.7192 43.0664 58.3846C43.5681 57.05 43.5223 55.5705 42.9391 54.2696C42.0277 52.0729 40.9278 49.8761 39.8717 47.7848C39.381 46.8139 38.8858 45.8429 38.4126 44.8675C37.9744 43.9888 37.5581 43.0882 37.098 42.1567L36.5502 41.0013L41.6114 37.0471L40.0558 35.1799L37.8911 36.599C36.3837 37.5831 34.9158 38.5453 33.4522 39.5162C31.7476 40.6498 30.2183 40.4828 28.6321 38.9934C26.257 36.7439 23.8119 34.4857 21.4676 32.2977L16.5992 27.7592C15.7228 26.9245 15.2277 26.0633 15.2014 25.2681C15.1978 24.9762 15.2534 24.6867 15.3649 24.4171C15.4764 24.1474 15.6414 23.9033 15.8499 23.6996C16.8578 22.6364 18.4309 22.8209 19.9602 24.2093L22.081 26.1205C24.9687 28.7214 27.9528 31.3927 30.8186 34.121C31.8572 35.1008 32.5977 34.9162 33.5267 34.2704C36.1252 32.4515 39.5519 30.0746 43.0092 27.7768C45.0425 26.4236 46.861 25.9491 48.4166 26.3577C49.867 26.7443 51.0895 27.9042 52.0492 29.8022C52.3916 30.481 52.543 31.2404 52.4874 31.999C51.9922 36.7132 51.462 41.3396 50.9011 46.2339L50.4103 50.5L46.0503 50.1705C45.3054 50.1134 44.8979 50.0826 44.6174 50.3243C44.337 50.5659 44.28 51.08 44.2055 52.1652V52.3629L44.4027 52.3936C44.911 52.4859 45.4237 52.5913 45.9364 52.7012C47.1164 52.9905 48.3209 53.1685 49.534 53.2328C51.2122 53.2723 52.0317 54.2784 52.7897 55.39C57.2199 61.9143 57.3338 69.291 56.8255 75.6836L38.5966 73.7329L38.2241 76.2152L56.6283 78.39L55.4583 82.946L51.9922 82.6297C49.3236 82.3881 46.6945 82.1552 44.0653 81.9048C42.295 81.729 40.5305 81.5518 38.7719 81.3732ZM25.7838 40.2939L25.9152 40.1182C27.7907 42.7015 30.3366 43.5319 33.8948 42.7235C34.0788 42.6796 34.8062 43.2903 35.1261 43.901C37.3828 48.2418 39.1487 51.7741 40.6868 55.0078C40.8675 55.3712 40.9734 55.7673 40.9983 56.1727C41.0231 56.578 40.9664 56.9842 40.8314 57.3671C40.6733 57.7937 40.4323 58.1846 40.1224 58.5172C39.8125 58.8498 39.4398 59.1174 39.026 59.3046C37.4135 60.0691 35.744 59.4759 34.8676 57.824C32.9746 54.2389 31.0859 50.5747 29.2587 47.0291C28.5342 45.6232 27.8039 44.2173 27.0677 42.8114L25.7838 40.2939ZM63.7753 108.551C62.6316 109.509 61.4485 109.935 60.3398 109.773C59.2312 109.61 58.3329 108.934 57.5704 107.787C53.7275 101.992 49.7706 95.7751 45.8137 89.3342C45.2889 88.3538 44.9109 87.3012 44.6919 86.2104C44.5604 85.7096 44.429 85.1955 44.2537 84.6595L46.4052 84.8528C48.6619 85.0549 50.6119 85.2307 52.5794 85.4503C53.0008 85.5111 53.3824 85.7331 53.6442 86.0698C56.9307 91.342 60.353 96.9086 64.1127 103.073C65.2827 104.94 65.1381 107.405 63.7753 108.551Z" fill="white"/>
<path d="M27.6593 21.169H27.7338C30.4904 21.18 33.1385 20.0927 35.0955 18.1462C36.0907 17.1621 36.8812 15.9898 37.4213 14.6971C37.9614 13.4045 38.2402 12.0172 38.2417 10.6158C38.2508 9.18863 37.9659 7.77498 37.4049 6.46333C36.844 5.15167 36.019 3.97025 34.9816 2.99304C34.0137 2.04215 32.8633 1.29831 31.6001 0.806655C30.3369 0.314996 28.9873 0.0857615 27.633 0.13286C26.2978 0.104584 24.971 0.35079 23.7342 0.856298C22.4975 1.36181 21.3772 2.1159 20.4423 3.07212C19.414 4.05386 18.5983 5.23722 18.0457 6.54859C17.4931 7.85997 17.2156 9.27132 17.2303 10.6949C17.272 13.4567 18.3836 16.094 20.33 18.0487C22.2764 20.0035 24.9048 21.1225 27.6593 21.169ZM22.2564 12.0656C24.1207 11.945 25.9771 11.722 27.8171 11.3978C29.6446 11.0069 31.4497 10.5171 33.2244 9.93038C33.9781 9.69752 34.7406 9.46028 35.5206 9.23181C36.2962 11.3407 35.8141 13.4276 34.0088 15.7869C33.0176 17.0551 31.6622 17.9878 30.1255 18.4592C28.5889 18.9306 26.945 18.918 25.4158 18.423C22.252 17.3115 20.4642 15.2992 19.9515 12.2721C20.7271 12.193 21.4983 12.1315 22.2564 12.0656ZM21.1346 9.42952C20.7659 9.32005 20.44 9.09909 20.2013 8.79685C20.0915 8.69092 20.0153 8.55492 19.9822 8.40583C20.2275 5.9938 23.4527 3.07212 26.4937 2.50975C26.8188 2.44864 27.149 2.41922 27.4797 2.42188C30.1351 2.42188 33.5268 4.0958 34.4119 6.51662C29.8109 8.71777 25.4684 9.67116 21.1346 9.42073V9.42952Z" fill="white"/>
<path d="M34.539 75.8768C34.8114 75.8992 35.0825 75.8211 35.3015 75.6572C35.6783 75.332 35.652 74.7213 35.6082 73.6098V73.4384L31.9142 72.7355L31.7915 75.4331L31.9756 75.4682C32.8179 75.6722 33.6751 75.8088 34.539 75.8768Z" fill="white"/>
</g>
<defs>
<clipPath id="clip0">
<rect width="67" height="115" fill="white" transform="translate(0.5 0.124023)"/>
</clipPath>
</defs>
</svg>
