<svg width="38" height="36" viewBox="0 0 38 36" fill="none" xmlns="http://www.w3.org/2000/svg">
<path d="M18.807 11.9413C15.407 11.9413 12.6324 14.6177 12.6324 17.8972C12.6324 21.1768 15.407 23.8531 18.807 23.8531C22.207 23.8531 24.9817 21.1768 24.9817 17.8972C24.9817 14.6177 22.207 11.9413 18.807 11.9413ZM37.3263 17.8972C37.3263 15.4309 37.3495 12.9868 37.2059 10.5249C37.0623 7.66539 36.386 5.12754 34.2181 3.0365C32.0457 0.940983 29.4193 0.293117 26.4547 0.154607C23.8977 0.0160981 21.364 0.0384384 18.8117 0.0384384C16.2547 0.0384384 13.721 0.0160981 11.1686 0.154607C8.20408 0.293117 5.57303 0.945451 3.40519 3.0365C1.23272 5.13201 0.561064 7.66539 0.417467 10.5249C0.273871 12.9913 0.297032 15.4353 0.297032 17.8972C0.297032 20.3591 0.273871 22.8076 0.417467 25.2695C0.561064 28.129 1.23736 30.6669 3.40519 32.7579C5.57766 34.8535 8.20408 35.5013 11.1686 35.6398C13.7256 35.7783 16.2594 35.756 18.8117 35.756C21.3686 35.756 23.9024 35.7783 26.4547 35.6398C29.4193 35.5013 32.0503 34.849 34.2181 32.7579C36.3906 30.6624 37.0623 28.129 37.2059 25.2695C37.3541 22.8076 37.3263 20.3636 37.3263 17.8972ZM18.807 27.0612C13.5496 27.0612 9.30653 22.9684 9.30653 17.8972C9.30653 12.826 13.5496 8.73325 18.807 8.73325C24.0645 8.73325 28.3075 12.826 28.3075 17.8972C28.3075 22.9684 24.0645 27.0612 18.807 27.0612ZM28.6966 10.4981C27.4691 10.4981 26.4778 9.54197 26.4778 8.35794C26.4778 7.17391 27.4691 6.21775 28.6966 6.21775C29.9242 6.21775 30.9154 7.17391 30.9154 8.35794C30.9158 8.63909 30.8587 8.91755 30.7473 9.17737C30.6359 9.43719 30.4725 9.67327 30.2664 9.87207C30.0603 10.0709 29.8155 10.2285 29.5462 10.3359C29.2768 10.4434 28.9881 10.4985 28.6966 10.4981Z" fill="white"/>
</svg>
