<svg width="190" height="151" viewBox="0 0 190 151" fill="none" xmlns="http://www.w3.org/2000/svg">
<g clip-path="url(#clip0)">
<path fill-rule="evenodd" clip-rule="evenodd" d="M169.669 73.7094C168.842 77.4508 167.503 81.0606 165.689 84.4366C162.598 90.4392 157.948 95.501 152.226 99.0914C148.203 101.547 143.796 103.311 139.188 104.308C134.389 105.381 128.076 105.916 120.249 105.912H104.315L108.549 95.952L110.072 96.0617H120.715C125.503 96.1241 130.285 95.7247 134.995 94.869C138.975 94.1068 142.773 92.5948 146.187 90.4136C150.321 87.8394 153.633 84.139 155.732 79.7481C156.636 77.8159 157.326 75.791 157.791 73.7094H169.669ZM158.003 53.8315C157.474 51.237 156.607 48.7228 155.423 46.3533C153.1 41.8049 149.467 38.0548 144.993 35.585C142.103 33.9408 138.993 32.7175 135.757 31.9521L139.792 22.4588H139.86C144.248 23.4538 148.452 25.1282 152.322 27.4214C158.057 30.9569 162.745 35.9565 165.902 41.9048C167.884 45.6416 169.257 49.6699 169.971 53.8384L158.003 53.8315Z" fill="#E2000F"/>
<path fill-rule="evenodd" clip-rule="evenodd" d="M43.5796 95.9931L37.8361 109.222L22.5339 73.7094H34.014L35.2629 76.6156L43.5727 95.9931H43.5796ZM13.9975 53.8521L0.5 22.4793H11.9938L25.4845 53.8521H13.9975Z" fill="#1A1A18"/>
<path fill-rule="evenodd" clip-rule="evenodd" d="M64.2893 22.5067L77.9036 53.8521H66.2382L64.0492 48.814V48.8757L52.5142 22.5204H64.2962L64.2893 22.5067ZM86.4948 73.7094L95.9575 95.9931L90.2963 109.222L81.9796 90.0298L74.85 73.6888L86.4948 73.7094Z" fill="#1A1A18"/>
<path fill-rule="evenodd" clip-rule="evenodd" d="M92.8264 117.822L114.597 66.2446L114.835 66.3454L93.0693 117.941L92.831 117.84L92.8264 117.822ZM120.193 52.9818L139.295 7.7132L139.538 7.81392L120.431 53.0825L120.193 52.9818Z" fill="#1A1A18"/>
<path fill-rule="evenodd" clip-rule="evenodd" d="M13.4211 60.5557H9.73618V69.6172H8.36378V60.5557H4.69263V59.3424H13.4279V60.5557H13.4211ZM22.6505 69.6172H21.2781V64.5998H16.1727V69.6309H14.8003V59.3493H16.1727V63.3797H21.2781V59.3493H22.6505V69.6309V69.6172ZM32.2024 69.6172H25.4364V59.3356H32.2024V60.5557H26.8088V63.3728H32.2024V64.5861H26.8088V68.404H32.2024V69.6172ZM51.3405 59.3356L48.6643 69.6172H47.1272L44.9588 61.0835L42.8453 69.6172H41.3357L38.5909 59.3356H40.0113L42.1591 67.8831L44.2864 59.3356H45.6588L47.8066 67.9653L49.9818 59.3561L51.3405 59.3356ZM60.1307 69.6172H53.3648V59.3356H60.1307V60.5557H54.7372V63.3728H60.1307V64.5861H54.7372V68.404H60.1307V69.6172ZM71.007 64.4901C71.0176 65.3752 70.8077 66.2491 70.3963 67.0331C70.0217 67.7551 69.4601 68.3634 68.77 68.7947C68.2856 69.092 67.7543 69.3052 67.1986 69.4253C66.4458 69.5697 65.6799 69.634 64.9135 69.6172H62.3334V59.3356H64.9067C65.7104 59.3156 66.5138 59.3869 67.3015 59.5481C67.8308 59.6696 68.3379 59.8732 68.8043 60.1513C69.4946 60.5754 70.0585 61.1766 70.4374 61.8923C70.8473 62.6933 71.0502 63.584 71.0275 64.4833L71.007 64.4901ZM69.5797 64.4901C69.6052 63.7805 69.4593 63.0751 69.1542 62.4338C68.8746 61.8846 68.4374 61.4312 67.8985 61.1314C67.4952 60.9074 67.0602 60.7456 66.6084 60.6516C66.0671 60.5564 65.518 60.5128 64.9684 60.5214H63.7058V68.4246H64.989C65.5664 68.4317 66.1432 68.3835 66.7114 68.2806C67.1992 68.193 67.6653 68.0114 68.0838 67.746C68.5821 67.4338 68.9818 66.987 69.2366 66.4573C69.5106 65.829 69.6418 65.1478 69.6208 64.4627L69.5797 64.4901ZM81.9313 64.4901C81.9419 65.3752 81.732 66.2491 81.3205 67.0331C80.9455 67.7569 80.3811 68.3657 79.6874 68.7947C79.207 69.1087 78.6751 69.3361 78.116 69.4664C77.3633 69.6114 76.5973 69.6758 75.8309 69.6584H73.2371V59.3767H75.8035C76.6073 59.356 77.4108 59.4273 78.1983 59.5892C78.7285 59.7082 79.2359 59.9119 79.7011 60.1924C80.3935 60.6161 80.9598 61.2173 81.3411 61.9334C81.7511 62.7344 81.9539 63.6251 81.9313 64.5244V64.4901ZM80.4971 64.4901C80.5248 63.781 80.3812 63.0757 80.0785 62.4338C79.7989 61.8846 79.3617 61.4312 78.8228 61.1314C78.4195 60.9074 77.9846 60.7456 77.5328 60.6516C76.9914 60.5567 76.4423 60.5131 75.8927 60.5214H74.6095V68.4246H75.8927C76.4701 68.4317 77.0469 68.3835 77.6151 68.2806C78.1026 68.1916 78.5684 68.0101 78.9875 67.746C79.4842 67.4318 79.8834 66.9855 80.1403 66.4573C80.4117 65.8284 80.5406 65.1472 80.5177 64.4627L80.4971 64.4901ZM87.7708 69.6378H83.7085V68.5959H85.0809V60.3706H83.7085V59.3287H87.7708V60.3706H86.3984V68.5959H87.7708V69.6378ZM97.9472 69.6378H96.2523L91.3734 60.446V69.6378H90.1039V59.3561H92.2174L96.6434 67.746V59.3561H97.9197V69.6378H97.9472ZM109.269 68.8907C108.675 69.1658 108.06 69.3949 107.43 69.5761C106.801 69.7571 106.15 69.8517 105.495 69.8571C104.748 69.8656 104.005 69.7545 103.293 69.5281C102.655 69.3304 102.071 68.9906 101.584 68.5342C101.095 68.0648 100.72 67.4905 100.486 66.8549C100.211 66.1023 100.078 65.305 100.095 64.5038C100.057 63.791 100.165 63.078 100.413 62.4085C100.661 61.739 101.043 61.1271 101.536 60.6105C102.067 60.119 102.693 59.7395 103.374 59.4946C104.055 59.2496 104.779 59.1443 105.502 59.1848C106.105 59.187 106.706 59.2559 107.293 59.3904C107.976 59.5602 108.638 59.8014 109.269 60.1101V61.7278H109.146C109.002 61.6181 108.796 61.4742 108.528 61.3028C108.273 61.1338 108.004 60.9849 107.726 60.8573C107.375 60.7103 107.012 60.5933 106.641 60.5077C106.19 60.4128 105.73 60.3669 105.269 60.3706C104.759 60.3455 104.249 60.4311 103.775 60.6216C103.301 60.8121 102.875 61.103 102.524 61.4742C101.866 62.3562 101.514 63.4289 101.523 64.529C101.532 65.6291 101.9 66.6962 102.572 67.5678C102.943 67.9424 103.389 68.2344 103.881 68.4246C104.373 68.6148 104.9 68.6989 105.427 68.6713C105.871 68.6722 106.315 68.6285 106.751 68.5411C107.145 68.4663 107.531 68.3539 107.904 68.2052V65.7034H105.159V64.4833H109.276V68.8975L109.269 68.8907ZM125.34 64.5107C125.352 65.3967 125.14 66.2714 124.723 67.0537C124.352 67.7786 123.79 68.388 123.096 68.8153C122.613 69.1137 122.081 69.327 121.525 69.4459C120.772 69.5909 120.006 69.6552 119.24 69.6378H116.646V59.3561H119.213C120.016 59.3354 120.82 59.4067 121.607 59.5686C122.137 59.6889 122.644 59.8925 123.11 60.1718C123.803 60.5956 124.369 61.1967 124.75 61.9129C125.16 62.7139 125.363 63.6045 125.34 64.5038V64.5107ZM123.906 64.5107C123.934 63.8016 123.79 63.0963 123.488 62.4543C123.208 61.9052 122.771 61.4517 122.232 61.152C121.828 60.9279 121.394 60.7662 120.942 60.6722C120.395 60.5813 119.842 60.5423 119.288 60.5557H118.005V68.4588H119.288C119.865 68.466 120.442 68.4178 121.01 68.3149C121.497 68.2246 121.963 68.0432 122.383 67.7802C122.879 67.4676 123.276 67.0208 123.529 66.4916C123.806 65.8643 123.937 65.1823 123.913 64.497L123.906 64.5107ZM135.668 69.6584H134.206L133.197 66.8069H128.737L127.735 69.6584H126.363L130.109 59.3767H131.935L135.681 69.6584H135.668ZM132.765 65.6142L130.953 60.5557L129.149 65.5868L132.765 65.6142ZM145.075 69.6584H143.374L138.502 60.4391V69.6309H137.225V59.3493H139.339L143.792 67.7391V59.3561H145.069V69.6378L145.075 69.6584ZM155.766 68.9112L155.08 69.2265C154.819 69.3426 154.551 69.4433 154.277 69.5281C153.976 69.6227 153.669 69.6982 153.358 69.7543C153 69.8175 152.637 69.8473 152.274 69.8434C151.575 69.8543 150.88 69.7501 150.215 69.535C149.617 69.3295 149.073 68.9921 148.623 68.5479C148.158 68.0768 147.804 67.5077 147.587 66.8823C147.327 66.1262 147.202 65.3305 147.216 64.5312C147.203 63.76 147.323 62.9923 147.573 62.2624C147.791 61.6295 148.145 61.0517 148.609 60.5694C149.057 60.1174 149.598 59.7688 150.194 59.5481C150.854 59.3092 151.551 59.1908 152.253 59.1985C152.81 59.1965 153.366 59.2633 153.907 59.3973C154.543 59.559 155.159 59.7889 155.746 60.0827V61.7072H155.657C155.155 61.2777 154.588 60.9328 153.975 60.6859C153.403 60.4693 152.796 60.3601 152.184 60.3637C151.715 60.3598 151.249 60.4459 150.812 60.6174C150.387 60.7909 150.007 61.058 149.7 61.3988C149.364 61.7759 149.112 62.2197 148.959 62.7011C148.771 63.2879 148.681 63.9015 148.692 64.5175C148.678 65.1488 148.775 65.7777 148.98 66.3751C149.148 66.8435 149.407 67.2743 149.742 67.6432C150.055 67.9745 150.44 68.23 150.867 68.3903C151.305 68.5559 151.771 68.6396 152.239 68.6371C152.872 68.6394 153.5 68.5255 154.092 68.3012C154.687 68.0623 155.235 67.7213 155.711 67.2936H155.808V68.8907L155.766 68.9112ZM164.474 69.6584H157.715V59.3767H164.481V60.5557H159.088V63.3728H164.481V64.5861H159.088V68.404H164.481V69.6172L164.474 69.6584ZM179.475 69.6584H177.787L172.908 60.4666V69.6584H171.631V59.3767H173.752L178.205 67.7665V59.3561H179.475V69.6378V69.6584ZM189.514 59.3767L185.849 65.1276V69.6309H184.477V65.2715L180.84 59.3561H182.35L185.17 63.9555L188.018 59.3561L189.514 59.3767Z" fill="#1A1A18"/>
</g>
<defs>
<clipPath id="clip0">
<rect width="189" height="165" fill="white" transform="translate(0.5 -14)"/>
</clipPath>
</defs>
</svg>
