<svg width="32" height="30" viewBox="0 0 32 30" fill="none" xmlns="http://www.w3.org/2000/svg">
<g clip-path="url(#clip0)">
<path d="M10.5371 24.5256C10.9594 24.9345 11.6623 24.9345 12.0994 24.5256C12.5217 24.1305 12.5217 23.473 12.0994 23.0788L4.17759 15.6681H30.3184C30.9278 15.6672 31.4121 15.2141 31.4121 14.6441C31.4121 14.074 30.9278 13.6062 30.3184 13.6062H4.17759L12.0994 6.20928C12.5217 5.80039 12.5217 5.14193 12.0994 4.74777C11.6623 4.33888 10.9584 4.33888 10.5371 4.74777L0.739929 13.9128C0.302837 14.3079 0.302837 14.9655 0.739929 15.3596L10.5371 24.5256Z" fill="white"/>
</g>
<defs>
<clipPath id="clip0">
<rect width="31" height="29" fill="white" transform="translate(31.4121 29.1367) rotate(-180)"/>
</clipPath>
</defs>
</svg>
