<svg width="32" height="30" viewBox="0 0 32 30" fill="none" xmlns="http://www.w3.org/2000/svg">
<g clip-path="url(#clip0)">
<path d="M20.8929 4.74808C20.4705 4.33918 19.7676 4.33918 19.3306 4.74808C18.9082 5.14315 18.9082 5.80069 19.3306 6.19485L27.2523 13.6056H1.11153C0.502166 13.6065 0.0178223 14.0596 0.0178223 14.6296C0.0178223 15.1997 0.502166 15.6675 1.11153 15.6675H27.2523L19.3306 23.0644C18.9082 23.4733 18.9082 24.1318 19.3306 24.5259C19.7676 24.9348 20.4715 24.9348 20.8929 24.5259L30.69 15.3608C31.1271 14.9658 31.1271 14.3082 30.69 13.9141L20.8929 4.74808Z" fill="white"/>
</g>
<defs>
<clipPath id="clip0">
<rect width="31" height="29" fill="white" transform="translate(0.0178223 0.136963)"/>
</clipPath>
</defs>
</svg>
