<svg width="108" height="114" viewBox="0 0 108 114" fill="none" xmlns="http://www.w3.org/2000/svg">
<g clip-path="url(#clip0)">
<path d="M30.5583 36.6057L36.2948 31.0909C40.8281 35.2348 45.2592 39.4507 49.8635 43.4642C56.2527 49.0419 63.5122 53.1813 71.2112 56.6735C81.8568 61.4184 91.0249 69.0085 97.7314 78.629C101.106 83.4605 103.992 88.6426 107.197 93.8248C100.204 100.319 93.3269 106.71 86.4449 113.111C72.8229 104.661 61.2921 94.2652 54.8053 79.1054C52.6785 74.1255 50.9025 68.9973 48.8113 64.0039C45.5967 56.3364 40.6905 49.7385 35.6555 43.2395C33.9816 41.1001 32.3344 38.9293 30.5583 36.6057ZM69.9768 58.3769C69.815 58.4817 69.666 58.6054 69.5328 58.7454C69.3984 58.9239 69.2893 59.1206 69.2087 59.3297C66.7667 65.8062 62.2112 69.9591 55.6578 71.8603C54.3702 72.2333 54.5433 72.8446 54.9029 73.8558C57.3513 80.6211 60.8693 86.9387 65.3192 92.5618C70.7893 99.5957 77.8401 104.791 85.0329 109.803C85.4769 110.104 86.6091 109.973 87.0265 109.596C92.0526 105.038 96.8789 100.247 102.029 95.8473C104.103 94.0765 104.121 92.9663 102.873 90.6472C95.2228 76.4222 84.8553 65.1455 69.9768 58.3769ZM46.8576 54.66C46.8576 55.0555 46.7777 55.2173 46.8266 55.3251C48.9444 59.9589 51.0401 64.6062 53.2513 69.1951C53.4523 69.4591 53.7162 69.6672 54.0182 69.8C54.3203 69.9328 54.6506 69.986 54.9784 69.9546C60.715 68.2602 64.8708 64.7096 67.1352 59.0241C67.6458 57.7297 67.3483 57.0195 65.963 56.5252C64.6705 55.9928 63.4319 55.335 62.2645 54.5611C59.2897 52.7858 56.3371 50.9655 52.9405 48.9205C53.5088 51.752 53.975 54.0981 54.5034 56.7274L46.8576 54.66ZM51.7417 53.7161C50.7871 50.6419 51.4841 47.3519 48.6647 45.1182C47.0752 43.83 45.5518 42.4604 44.1004 41.0147C43.1103 40.0529 42.351 40.0035 41.3431 41.0147C38.3595 44.008 38.1197 42.9923 40.8636 46.7452C41.2573 47.1747 41.6055 47.6446 41.9026 48.1475C43.7408 52.2554 47.5592 52.8622 51.7195 53.7161H51.7417ZM41.3387 38.3495C39.4917 36.8034 37.9066 35.4775 36.3082 34.1696C36.2416 34.1157 36.0284 34.2146 35.8997 34.2685C33.875 35.1674 33.4 37.0461 34.7675 38.7855C35.1441 39.3302 35.566 39.8415 36.0285 40.3136C36.5568 40.7855 37.507 41.599 37.7379 41.4462C38.9011 40.6597 39.9135 39.6035 41.3165 38.3495H41.3387Z" fill="white"/>
<path d="M6.12036 11.095C7.99405 9.29726 9.73899 7.54891 11.626 5.96237C11.9634 5.67921 13.1445 5.87248 13.513 6.259C15.8129 8.66804 17.993 11.2029 20.2973 13.7738C18.4991 15.4547 16.7098 17.212 14.805 18.821C14.527 18.9628 14.2176 19.0298 13.9066 19.0156C13.5956 19.0015 13.2934 18.9066 13.029 18.7401C10.7069 16.2907 8.48689 13.7333 6.12036 11.095ZM8.78437 11.0276L14.2012 16.9244C15.2668 15.576 17.1094 13.9266 16.8652 13.4996C15.7543 11.5953 14.276 9.93681 12.5184 8.62309C12.1144 8.33544 10.294 10.0164 8.77551 11.0276H8.78437Z" fill="white"/>
<path d="M48.5717 15.4682C49.1244 15.4637 49.6724 15.5721 50.1829 15.787C50.6933 16.0018 51.1557 16.3186 51.5424 16.7184C51.9291 17.1183 52.2322 17.593 52.4335 18.1141C52.6349 18.6352 52.7303 19.1921 52.7142 19.7514C52.6653 21.9987 50.5874 24.1425 48.4917 24.0976C46.2717 24.0437 44.3847 21.9762 44.3936 19.6525C44.3812 19.0958 44.4812 18.5424 44.6873 18.026C44.8935 17.5097 45.2015 17.0414 45.5926 16.6498C45.9837 16.2581 46.4496 15.9513 46.9618 15.7481C47.474 15.545 48.0218 15.4497 48.5717 15.4682ZM47.8257 21.9987L48.8247 22.1065C49.4552 21.3065 50.5652 20.5065 50.5741 19.6975C50.5741 18.9739 49.3975 17.7019 48.6827 17.666C47.9678 17.63 46.769 18.7132 46.5825 19.4997C46.4182 20.2009 47.3684 21.1672 47.8257 21.9987Z" fill="white"/>
<path d="M7.07071 30.0303C7.11511 31.8281 5.3835 33.6034 3.56753 33.6258C2.68531 33.6034 1.84494 33.2404 1.21844 32.6113C0.591952 31.9821 0.226746 31.1343 0.197571 30.2415C0.169939 29.7946 0.231854 29.3467 0.379599 28.9246C0.527345 28.5026 0.757866 28.1151 1.05731 27.7856C1.35675 27.456 1.71894 27.1911 2.12208 27.0069C2.52523 26.8226 2.96101 26.7228 3.40325 26.7133C4.32096 26.6736 5.21776 26.998 5.90274 27.6175C6.58771 28.237 7.00676 29.1027 7.07071 30.0303ZM5.09045 30.5247C4.50881 29.819 4.20246 29.0864 3.68742 28.9381C3.36774 28.8437 2.35542 29.7336 2.42202 29.9718C2.6085 30.655 3.18125 31.2303 3.59861 31.8505L5.09045 30.5247Z" fill="white"/>
<path d="M30.3987 30.1921C30.0967 30.5561 29.8836 31.028 29.5417 31.1629C29.3496 31.2202 29.1468 31.2305 28.95 31.193C28.7532 31.1555 28.5679 31.0712 28.4095 30.9471C25.7455 28.1021 23.1304 25.2391 20.5862 22.2998C20.3065 21.9807 20.5862 21.1627 20.5862 20.5784C21.0613 20.6593 21.714 20.5784 21.9804 20.8525C24.5911 23.6166 27.1353 26.4347 29.6927 29.2437C29.9414 29.5089 30.1278 29.819 30.3987 30.1921Z" fill="white"/>
<path d="M26.9663 33.428C25.914 34.4887 25.1903 34.6101 24.1824 33.3921C22.4552 31.2527 20.0443 30.4437 17.3403 30.2909C16.6077 30.2505 15.9107 29.6572 14.7651 29.1089C19.0542 27.2347 23.4676 28.983 26.9663 33.428Z" fill="white"/>
<path d="M29.031 15.7289C29.555 16.6862 30.252 17.3604 30.1854 17.9402C29.7414 21.5357 31.1178 24.3178 33.7641 26.7673L32.6585 28.2505C28.9955 26.3044 27.0064 20.0436 29.031 15.7289Z" fill="white"/>
<path d="M32.574 7.61626L32.4275 5.59375H35.5C36.0595 7.82301 36.0506 7.8275 32.574 7.61626Z" fill="white"/>
<path d="M40.3752 5.495H43.3634C44.1626 7.74223 44.1626 7.74223 40.5173 7.67032L40.3752 5.495Z" fill="white"/>
<path d="M39.092 8.42529V12.8479C38.4437 12.749 37.4003 12.7445 37.3648 12.5557C37.153 11.4677 37.1155 10.3523 37.2538 9.25229C37.3026 8.96464 38.2661 8.77586 39.092 8.42529Z" fill="white"/>
<path d="M36.9963 4.11962C37.7289 2.70835 35.8552 0.339758 38.91 0.124023C39.5227 4.08365 39.354 4.49266 36.9963 4.11962Z" fill="white"/>
<path d="M21.6517 46.853C19.6537 46.9699 19.5516 46.7272 20.0089 42.9833C22.069 42.6327 22.2511 43.0417 21.6517 46.853Z" fill="white"/>
<path d="M21.8071 50.97V55.0959H19.6892C20.555 53.7521 18.375 51.2486 21.8071 50.97Z" fill="white"/>
<path d="M18.6014 49.725C15.2714 50.1745 15.2714 50.1745 15.338 48.0711C16.4791 48.4351 18.3705 46.862 18.6014 49.725Z" fill="white"/>
<path d="M23.2546 47.9272C24.4845 48.4171 26.4381 46.9519 26.5003 49.5767C23.5832 50.3588 23.188 50.197 23.2546 47.9272Z" fill="white"/>
<path d="M95.032 82.3504L76.0021 100.032L59.4763 81.8425L78.5684 64.1343L95.032 82.3504ZM92.1948 82.229C88.6073 78.2649 85.1796 74.539 81.814 70.7501C78.5373 67.0602 78.5639 67.0332 74.9764 70.2378C74.8654 70.3366 74.7322 70.4086 74.6257 70.5074L62.3667 81.9683L76.0997 97.1507L92.1948 82.229Z" fill="white"/>
<path d="M78.1953 72.3053C78.5994 72.8312 78.9457 73.2716 79.4296 73.8963L69.5062 83.1639C68.1342 82.3145 67.8589 81.7841 69.3064 80.5751C72.2812 78.0852 75.0118 75.2941 78.1953 72.3053Z" fill="white"/>
<path d="M72.1347 86.5707L71.189 84.7459L80.7173 75.757C82.1203 76.5435 82.4577 77.1368 80.8504 78.4536C77.9112 80.9301 75.2161 83.6807 72.1347 86.5707Z" fill="white"/>
<path d="M75.3758 89.5909C74.0039 88.8404 73.884 88.1932 75.0384 87.2089C76.8854 85.6448 78.5904 83.9279 80.4596 82.202C81.6362 82.9211 82.1824 83.5504 80.8637 84.665C79.0166 86.2381 77.2495 87.901 75.3758 89.5909Z" fill="white"/>
</g>
<defs>
<clipPath id="clip0">
<rect width="107" height="113" fill="white" transform="translate(0.193115 0.124023)"/>
</clipPath>
</defs>
</svg>
