<svg width="46" height="36" viewBox="0 0 46 36" fill="none" xmlns="http://www.w3.org/2000/svg">
<path d="M45.9117 4.28022C44.2354 4.97772 42.4112 5.47971 40.5322 5.67522C42.4831 4.5573 43.944 2.79118 44.6408 0.708206C42.8102 1.75862 40.8048 2.49519 38.7135 2.88524C37.8394 1.98392 36.7823 1.26588 35.608 0.775881C34.4336 0.285878 33.1673 0.0344051 31.8878 0.0371313C26.711 0.0371313 22.5476 4.08472 22.5476 9.05172C22.5476 9.74922 22.6352 10.4467 22.7777 11.1178C15.0261 10.7268 8.11277 7.15475 3.51663 1.68576C2.67917 3.0655 2.24031 4.63651 2.24571 6.23532C2.24571 9.36348 3.89462 12.1218 6.40907 13.744C4.92727 13.6877 3.48016 13.2948 2.18545 12.5973V12.7083C2.18545 17.0888 5.39562 20.7189 9.67403 21.5538C8.87071 21.7551 8.04433 21.858 7.21436 21.8603C6.60629 21.8603 6.03108 21.8021 5.4504 21.7229C6.63368 25.2949 10.0794 27.8894 14.1825 27.9739C10.9723 30.3993 6.95141 31.826 2.58535 31.826C1.80198 31.826 1.07887 31.7996 0.328369 31.715C4.46982 34.2778 9.38369 35.7573 14.6755 35.7573C31.8549 35.7573 41.2553 22.0294 41.2553 10.1138C41.2553 9.7228 41.2553 9.33178 41.228 8.94076C43.0467 7.65673 44.6408 6.06623 45.9117 4.28022Z" fill="white"/>
</svg>
