<svg width="70" height="72" viewBox="0 0 70 72" fill="none" xmlns="http://www.w3.org/2000/svg">
<g clip-path="url(#clip0)">
<path d="M27.7626 0.0401753C27.7626 2.25321 25.9977 2.86482 24.9098 3.89488C15.3519 12.9482 11.3548 24.287 11.4515 37.1548C11.4515 43.5042 12.6361 44.3491 18.7045 44.502C24.394 44.6469 28.4315 47.56 30.2448 52.823C32.4851 59.3494 31.2843 65.7471 27.1743 69.1753C23.0643 72.6035 16.4318 72.9415 11.6288 70.1651C7.34145 67.6865 4.81903 63.7916 3.07832 59.3334C-4.64207 39.5287 3.93258 13.6081 21.9844 2.26126C23.6768 1.18291 25.3691 -0.257578 27.7626 0.0401753Z" fill="#F77780"/>
<path d="M65.6393 0.0401753C65.6393 2.25321 63.8744 2.86482 62.7865 3.89488C53.2287 12.9482 49.2315 24.287 49.3282 37.1548C49.3282 43.5042 50.5129 44.3491 56.5812 44.502C62.2707 44.6469 66.3082 47.56 68.1215 52.823C70.3618 59.3494 69.161 65.7471 65.051 69.1753C60.941 72.6035 54.3086 72.9415 49.5055 70.1651C45.2182 67.6865 42.6957 63.7916 40.955 59.3334C33.2346 39.5287 41.8093 13.6081 59.8611 2.26126C61.5535 1.18291 63.2459 -0.257578 65.6393 0.0401753Z" fill="#F77780"/>
</g>
<defs>
<clipPath id="clip0">
<rect width="69" height="72" fill="white" transform="translate(0.209473)"/>
</clipPath>
</defs>
</svg>
